#!OML:ASF F:\VICON\USERDATA\INSTALL\rory3\rory3.ASF
:FULLY-SPECIFIED
:DEGREES
1792
root -1.869 18.6486 -1.24681 -6.64338 -7.6407 5.98327
lowerback 11.213 1.40417 -7.17137
upperback 1.04281 0.836329 -2.27927
thorax -5.27307 0.541353 1.51107
lowerneck -13.7067 0.403601 -8.03456
upperneck 9.00263 1.11159 7.9397
head 4.84428 0.801452 3.88859
rclavicle 1.43187e-014 -2.5842e-014
rhumerus -54.4402 18.7851 -96.7564
rradius 105.26
rwrist 2.89017
rhand -44.0318 14.4807
rfingers 7.12502
rthumb -16.8518 -14.808
lclavicle 1.43187e-014 -2.5842e-014
lhumerus -14.7653 -17.4532 82.861
lradius 118.583
lwrist 20.4319
lhand -27.7997 10.0178
lfingers 7.12502
lthumb -1.19247 39.9942
rfemur -26.9468 10.733 10.5692
rtibia 71.6247
rfoot -4.82092 -15.6095
rtoes -2.40226
lfemur -1.1905 -3.14434 -26.0146
ltibia 37.5299
lfoot -7.55333 -5.29428
ltoes -20.4366
1793
root -1.90372 18.7616 -1.19317 -6.29211 -7.70501 5.61581
lowerback 10.6225 1.22587 -6.79314
upperback 0.832245 0.697858 -2.14998
thorax -5.15085 0.468093 1.46398
lowerneck -13.6995 0.5817 -8.04803
upperneck 9.52265 1.34326 7.85368
head 4.9846 0.906433 3.88978
rclavicle 4.11236e-015 -3.89618e-014
rhumerus -55.4089 18.9297 -97.2402
rradius 105.401
rwrist 2.65208
rhand -43.4457 14.0311
rfingers 7.12502
rthumb -16.2876 -15.3049
lclavicle 4.11236e-015 -3.89618e-014
lhumerus -15.4909 -17.2077 83.0198
lradius 119.628
lwrist 20.6052
lhand -27.9639 9.89243
lfingers 7.12502
lthumb -1.35102 39.8679
rfemur -26.5522 11.2111 11.3811
rtibia 70.0536
rfoot -4.37131 -15.6835
rtoes -2.55901
lfemur -1.06594 -3.59851 -25.5849
ltibia 36.8189
lfoot -5.97 -4.82158
ltoes -20.5035
1794
root -1.94325 18.8769 -1.13891 -5.926 -7.67682 5.16669
lowerback 9.92586 1.01653 -6.37705
upperback 0.703848 0.532569 -1.98991
thorax -4.88018 0.375613 1.43158
lowerneck -13.6884 0.766604 -8.08779
upperneck 9.88433 1.58553 7.85369
head 5.07384 1.0217 3.92117
rclavicle 1.05915e-014 -3.18055e-015
rhumerus -56.1716 19.0163 -97.6386
rradius 105.427
rwrist 2.34637
rhand -42.7932 14.4319
rfingers 7.12502
rthumb -15.6592 -14.9544
lclavicle 1.05915e-014 -3.18055e-015
lhumerus -16.2114 -16.9694 83.1982
lradius 120.609
lwrist 20.9441
lhand -28.1014 9.48689
lfingers 7.12502
lthumb -1.48383 39.4615
rfemur -26.0883 11.7031 12.2691
rtibia 68.3948
rfoot -3.87922 -15.6987
rtoes -3.1579
lfemur -1.0238 -4.18158 -25.0498
ltibia 36.1867
lfoot -4.32821 -4.2884
ltoes -20.206
1795
root -1.98398 18.9933 -1.08361 -5.52389 -7.38616 4.70132
lowerback 9.21089 0.729604 -5.95791
upperback 0.623668 0.260894 -1.83175
thorax -4.54181 0.228307 1.406
lowerneck -13.7901 0.904605 -7.92033
upperneck 10.158 1.76939 7.59376
head 5.16423 1.09999 3.83138
rclavicle -4.41519e-015 -2.38542e-014
rhumerus -56.7831 19.0785 -97.9888
rradius 105.459
rwrist 2.1737
rhand -42.2807 14.6876
rfingers 7.12502
rthumb -15.1656 -14.7367
lclavicle -4.41519e-015 -2.38542e-014
lhumerus -16.9134 -16.7388 83.3746
lradius 121.572
lwrist 21.253
lhand -27.9293 9.30319
lfingers 7.12502
lthumb -1.31762 39.2789
rfemur -25.5305 12.0842 13.1276
rtibia 66.6632
rfoot -3.51934 -15.4974
rtoes -3.17433
lfemur -1.06408 -4.88768 -24.4595
ltibia 35.568
lfoot -2.79408 -3.83384
ltoes -20.0672
1796
root -2.02313 19.0966 -1.03518 -5.25191 -7.26957 4.36777
lowerback 8.74621 0.532269 -5.63879
upperback 0.479135 0.0666365 -1.71105
thorax -4.41843 0.127095 1.37997
lowerneck -13.6577 0.993349 -7.72845
upperneck 10.3383 1.8736 7.3038
head 5.19461 1.13463 3.71653
rclavicle -8.71857e-015 -7.35503e-015
rhumerus -57.5072 19.2305 -98.3801
rradius 105.558
rwrist 1.99278
rhand -42.2064 14.2088
rfingers 7.12502
rthumb -15.094 -15.2208
lclavicle -8.71857e-015 -7.35503e-015
lhumerus -17.8001 -16.6115 83.5911
lradius 122.523
lwrist 21.4788
lhand -27.6628 9.53278
lfingers 7.12502
lthumb -1.06023 39.5099
rfemur -24.9287 12.701 13.8148
rtibia 64.909
rfoot -2.9982 -14.9499
rtoes -3.97824
lfemur -1.07489 -5.34499 -24.0004
ltibia 35.0022
lfoot -1.40993 -3.3775
ltoes -20.1544
1797
root -2.05835 19.1925 -0.990687 -5.056 -7.32614 4.27267
lowerback 8.44092 0.446672 -5.56172
upperback 0.276556 -0.022116 -1.63232
thorax -4.45311 0.0868229 1.42974
lowerneck -13.5199 1.07556 -7.62378
upperneck 10.5984 1.96195 7.18162
head 5.24785 1.16956 3.6699
rclavicle -9.85382e-016 1.19271e-014
rhumerus -58.2527 19.3805 -98.7236
rradius 105.622
rwrist 1.67102
rhand -42.1706 13.9333
rfingers 7.12502
rthumb -15.0595 -15.4989
lclavicle -9.85382e-016 1.19271e-014
lhumerus -18.8441 -16.6841 83.9168
lradius 123.375
lwrist 21.3864
lhand -27.7716 9.53
lfingers 7.12502
lthumb -1.16532 39.5066
rfemur -24.3642 13.4661 14.164
rtibia 63.1375
rfoot -2.1818 -14.001
rtoes -6.00866
lfemur -1.11167 -5.59342 -23.809
ltibia 34.5184
lfoot 0.143831 -2.88287
ltoes -19.7777
1798
root -2.09686 19.2856 -0.948042 -4.85544 -7.46118 4.20671
lowerback 8.67643 0.513378 -5.37094
upperback -0.280599 0.0409125 -1.67796
thorax -5.17425 0.138338 1.26317
lowerneck -13.1727 1.05412 -7.45239
upperneck 11.0723 1.86554 7.14317
head 5.34674 1.11879 3.62578
rclavicle -1.13245e-014 3.77691e-015
rhumerus -59.4293 19.0517 -99.274
rradius 105.523
rwrist 1.10904
rhand -41.9316 14.1485
rfingers 7.12502
rthumb -14.8293 -15.3009
lclavicle -1.13245e-014 3.77691e-015
lhumerus -20.4565 -17.2563 84.3928
lradius 124.27
lwrist 21.0199
lhand -27.9064 9.47432
lfingers 7.12502
lthumb -1.29548 39.4501
rfemur -23.8157 14.3306 14.4357
rtibia 61.3618
rfoot -1.38272 -12.9089
rtoes -6.90236
lfemur -1.20525 -5.67371 -23.5956
ltibia 34.1432
lfoot 1.97349 -2.3956
ltoes -18.2003
1799
root -2.13858 19.3702 -0.909024 -4.64982 -7.70617 3.93122
lowerback 8.40599 0.536751 -4.94862
upperback -0.42756 0.125148 -1.72438
thorax -5.17889 0.170356 0.967758
lowerneck -13.0481 1.05656 -7.22893
upperneck 11.182 1.81378 7.14729
head 5.36607 1.10093 3.58659
rclavicle 3.89494e-015 1.07344e-014
rhumerus -59.8509 18.9084 -99.7201
rradius 105.291
rwrist 0.365158
rhand -41.762 14.3545
rfingers 7.12502
rthumb -14.6658 -15.1068
lclavicle 3.89494e-015 1.07344e-014
lhumerus -21.3572 -17.6394 84.4673
lradius 125.079
lwrist 20.8138
lhand -27.9355 9.69833
lfingers 7.12502
lthumb -1.32364 39.674
rfemur -23.2634 15.3667 14.936
rtibia 59.5878
rfoot -0.656369 -11.7426
rtoes -6.91512
lfemur -1.33304 -5.61026 -23.1081
ltibia 33.9034
lfoot 3.57008 -1.8484
ltoes -16.5583
1800
root -2.17659 19.4432 -0.87107 -4.46055 -7.72271 3.64129
lowerback 8.11463 0.500594 -4.61156
upperback -0.510733 0.129724 -1.65955
thorax -5.10005 0.164265 0.847181
lowerneck -12.9047 1.03917 -7.15379
upperneck 11.1894 1.76755 7.14023
head 5.34859 1.07885 3.56633
rclavicle -6.54747e-015 -6.75868e-015
rhumerus -60.13 18.8393 -99.7611
rradius 105.269
rwrist 0.209014
rhand -41.6701 14.3645
rfingers 7.12502
rthumb -14.5773 -15.1032
lclavicle -6.54747e-015 -6.75868e-015
lhumerus -22.2629 -17.9183 84.714
lradius 125.757
lwrist 20.5954
lhand -27.9482 9.51995
lfingers 7.12502
lthumb -1.33589 39.4955
rfemur -22.644 16.2596 15.431
rtibia 57.8394
rfoot -0.0942617 -10.3509
rtoes -8.57213
lfemur -1.56038 -5.62824 -22.6153
ltibia 33.8672
lfoot 4.85961 -1.30754
ltoes -15.3398
1801
root -2.21089 19.5054 -0.836885 -4.23227 -7.59636 3.27633
lowerback 7.75573 0.40541 -4.116
upperback -0.511825 0.0753506 -1.59896
thorax -4.8936 0.121875 0.641356
lowerneck -12.9574 0.964753 -7.11865
upperneck 11.1954 1.66126 7.15465
head 5.36762 1.03026 3.55796
rclavicle -8.41108e-015 -1.19271e-015
rhumerus -60.2385 18.7912 -99.746
rradius 105.332
rwrist 0.204549
rhand -41.558 14.309
rfingers 7.12502
rthumb -14.4693 -15.1665
lclavicle -8.41108e-015 -1.19271e-015
lhumerus -23.0114 -18.1589 84.9432
lradius 126.225
lwrist 20.1453
lhand -27.8774 9.01106
lfingers 7.12502
lthumb -1.26754 38.987
rfemur -22.0581 17.015 15.9691
rtibia 56.1326
rfoot 0.487032 -8.98994
rtoes -10.9905
lfemur -1.95013 -5.71926 -22.043
ltibia 34.076
lfoot 5.84157 -0.887597
ltoes -14.1669
1802
root -2.2449 19.5556 -0.806575 -3.97591 -7.49262 2.86801
lowerback 7.38028 0.324734 -3.56302
upperback -0.487623 0.0433476 -1.52334
thorax -4.65312 0.0894636 0.415781
lowerneck -13.0341 0.931834 -7.15256
upperneck 11.1255 1.61498 7.26882
head 5.36084 1.01601 3.59629
rclavicle -3.20789e-014 -5.56597e-015
rhumerus -60.3328 18.9107 -99.8482
rradius 105.357
rwrist -0.394628
rhand -41.3637 14.6531
rfingers 7.12502
rthumb -14.2821 -14.8358
lclavicle -3.20789e-014 -5.56597e-015
lhumerus -23.6699 -18.4173 85.1575
lradius 126.665
lwrist 19.6122
lhand -27.8746 8.94056
lfingers 7.12502
lthumb -1.26476 38.9166
rfemur -21.552 17.7338 16.5185
rtibia 54.5101
rfoot 1.17862 -7.73998
rtoes -11.8527
lfemur -2.47386 -5.68947 -21.4093
ltibia 34.5349
lfoot 6.32559 -0.49933
ltoes -12.7843
